<?xml version="1.0" encoding="UTF-8" standalone="no"?>
<!-- Created with Inkscape (http://www.inkscape.org/) -->

<svg
   width="96.387619mm"
   height="92.042656mm"
   viewBox="0 0 96.387619 92.042656"
   version="1.1"
   id="svg5"
   xml:space="preserve"
   inkscape:version="1.2.1 (9c6d41e410, 2022-07-14)"
   sodipodi:docname="logo_nav.svg"
   xmlns:inkscape="http://www.inkscape.org/namespaces/inkscape"
   xmlns:sodipodi="http://sodipodi.sourceforge.net/DTD/sodipodi-0.dtd"
   xmlns="http://www.w3.org/2000/svg"
   xmlns:svg="http://www.w3.org/2000/svg"><sodipodi:namedview
     id="namedview7"
     pagecolor="#ffffff"
     bordercolor="#000000"
     borderopacity="0.25"
     inkscape:showpageshadow="2"
     inkscape:pageopacity="0.0"
     inkscape:pagecheckerboard="0"
     inkscape:deskcolor="#d1d1d1"
     inkscape:document-units="mm"
     showgrid="false"
     inkscape:zoom="0.73851712"
     inkscape:cx="36.559748"
     inkscape:cy="-36.559748"
     inkscape:window-width="1920"
     inkscape:window-height="1009"
     inkscape:window-x="-8"
     inkscape:window-y="-8"
     inkscape:window-maximized="1"
     inkscape:current-layer="layer1" /><defs
     id="defs2" /><g
     inkscape:label="Calque 1"
     inkscape:groupmode="layer"
     id="layer1"
     transform="translate(-8.6123827,-158.29016)"><path
       style="fill:#d72483;fill-opacity:1;stroke:none;stroke-width:0.0423333;stroke-opacity:1"
       d="m 78.118287,250.31789 c -0.339534,-0.0202 -0.482231,-0.0473 -0.592662,-0.1128 -0.126763,-0.0751 -3.31583,-2.5775 -5.712286,-4.48228 -0.151342,-0.12029 -0.513292,-0.40604 -0.804334,-0.635 -0.291041,-0.22896 -0.652991,-0.51489 -0.804333,-0.63541 -0.151342,-0.12051 -0.827617,-0.65403 -1.502833,-1.18559 -0.675217,-0.53157 -1.275292,-1.01875 -1.3335,-1.08262 -0.05821,-0.0639 -0.401109,-0.33328 -0.762001,-0.59867 -1.670909,-1.22874 -2.745731,-2.04197 -3.407833,-2.57844 -0.395817,-0.32071 -1.148292,-0.92856 -1.672167,-1.35078 -0.906991,-0.73099 -2.059626,-1.6767 -3.358138,-2.75527 -0.965881,-0.80229 -3.591022,-2.363 -5.468362,-3.25109 -0.186266,-0.0881 -0.772075,-0.30797 -1.301801,-0.48857 l -0.963134,-0.32837 -1.957866,0.65026 -1.957865,0.65026 -1.588296,0.95265 c -1.561423,0.93652 -1.60189,0.96426 -2.391834,1.63909 -0.441947,0.37755 -0.841637,0.74598 -0.888204,0.81875 -0.04657,0.0728 -0.182749,0.18845 -0.302624,0.25708 -0.119875,0.0686 -0.397396,0.28123 -0.616712,0.47242 -0.219316,0.1912 -1.083259,0.93129 -1.919876,1.64465 -0.836617,0.71335 -1.740217,1.52298 -2.007997,1.79916 -0.267784,0.27619 -0.761634,0.78791 -1.097446,1.13716 -0.335813,0.34925 -0.83131,0.8636 -1.101105,1.143 -0.269794,0.2794 -0.747494,0.77451 -1.061554,1.10025 -0.314061,0.32574 -0.799619,0.81077 -1.079019,1.07784 -0.2794,0.26708 -0.879475,0.84026 -1.3335,1.27374 -1.135898,1.08448 -2.44129,2.24045 -2.609375,2.31068 -0.288764,0.12066 -0.712574,0.0458 -0.939584,-0.16595 -0.05497,-0.0513 -0.139524,-0.16943 -0.187896,-0.26256 -0.07844,-0.15104 -0.09327,-0.29513 -0.137244,-1.3335 -0.04729,-1.1168 -0.0453,-1.19949 0.04882,-2.032 0.05397,-0.47731 0.129098,-1.15359 0.166961,-1.50284 0.03974,-0.36652 0.217779,-1.36882 0.42111,-2.37066 0.440022,-2.16805 0.472887,-2.33713 0.759751,-3.90871 0.193012,-1.0574 0.301795,-1.51872 0.616349,-2.61375 0.210084,-0.73135 0.544607,-2.04901 0.743385,-2.92813 0.201142,-0.88958 0.568053,-2.33056 0.827385,-3.24941 0.256284,-0.90805 0.503587,-1.80046 0.549562,-1.98313 0.290217,-1.15308 1.169433,-5.90826 1.499215,-8.10839 l 0.154716,-1.03218 -0.01822,-1.27498 c -0.01658,-1.1601 -0.02901,-1.33705 -0.137926,-1.96368 l -0.119703,-0.68869 -0.55407,-0.65606 -0.554071,-0.65605 -1.164166,-0.753 c -1.189736,-0.76954 -1.376875,-0.87726 -3.471334,-1.99805 -0.663575,-0.35509 -1.2827,-0.68755 -1.375833,-0.73879 -0.09313,-0.0512 -0.656221,-0.35355 -1.251307,-0.6718 l -1.081974,-0.57865 -1.754359,-0.52399 c -1.441227,-0.43047 -1.920593,-0.59385 -2.685694,-0.91535 -0.512233,-0.21525 -1.464733,-0.6156 -2.116666,-0.88966 -0.651934,-0.27407 -1.537759,-0.64511 -1.9685,-0.82453 -0.814025,-0.33908 -4.669579,-2.31759 -4.8683339,-2.49822 -0.05821,-0.0529 -0.324838,-0.27175 -0.592511,-0.48633 -0.585921,-0.46968 -0.685007,-0.59673 -0.711134,-0.91178 -0.03251,-0.39201 0.05099,-0.5348 0.670123,-1.14606 0.300996,-0.29715 0.601364,-0.57454 0.667485,-0.61641 0.06612,-0.0419 0.9761179,-0.3311 2.0222129,-0.64275 1.536392,-0.45772 2.284443,-0.65392 3.891658,-1.0207 1.094316,-0.24973 2.723091,-0.62253 3.6195,-0.82844 0.896408,-0.20591 2.801408,-0.64288 4.233333,-0.97106 1.480137,-0.33922 3.6264,-0.86904 4.974167,-1.22791 1.303867,-0.34717 3.837517,-1.02178 5.630333,-1.49911 l 3.259667,-0.8679 1.27,-0.5038 c 1.405666,-0.55764 2.792421,-1.10626 4.677833,-1.85065 0.686859,-0.27118 1.772709,-0.70024 2.413,-0.95346 0.640292,-0.25323 1.773767,-0.70095 2.518834,-0.99493 0.745067,-0.29398 1.375609,-0.55679 1.401204,-0.58401 0.02559,-0.0272 0.156032,-0.3543 0.289864,-0.72684 0.859549,-2.39265 1.169035,-3.29263 1.972556,-5.73616 0.794516,-2.41615 0.973574,-2.91327 1.55528,-4.318 0.361565,-0.87313 0.750727,-1.82563 0.864798,-2.11667 0.114076,-0.29104 0.271695,-0.67204 0.35027,-0.84667 0.07857,-0.17462 0.299013,-0.6985 0.489865,-1.16416 1.007343,-2.45784 2.763545,-6.52539 3.226024,-7.47183 1.426134,-2.91853 2.188926,-4.40447 2.355152,-4.58793 0.331868,-0.36626 0.940778,-0.36456 1.286294,0.004 0.08063,0.0859 0.325247,0.64363 0.77754,1.77276 0.65941,1.64618 0.660214,1.6486 1.081837,3.25607 0.373507,1.42403 0.453191,1.79511 0.69425,3.23309 0.149771,0.89345 0.281834,1.63985 0.29348,1.65869 0.01164,0.0188 0.144488,1.22142 0.295207,2.6724 0.285103,2.74465 0.420349,4.03985 0.593759,5.68615 0.237168,2.25161 0.439932,4.75519 0.718278,8.86883 0.03545,0.52388 0.08256,1.2192 0.104695,1.54517 0.08879,1.30758 0.122809,4.99684 0.06573,7.12687 -0.0404,1.50748 -0.17689,3.36166 -0.343256,4.66296 -0.151714,1.18668 -0.505312,3.25365 -0.648153,3.78884 -0.40002,1.49872 -1.453739,4.76562 -1.720452,5.334 -0.109258,0.23283 -0.275069,0.58525 -0.368465,0.78316 -0.0934,0.19791 -0.24133,0.51224 -0.32874,0.6985 -0.08741,0.18627 -0.253678,0.53869 -0.369481,0.78317 -0.174201,0.36777 -1.05377,1.84293 -1.73628,2.91199 -0.234455,0.36724 -1.663793,1.69967 -2.149535,2.00379 -0.209029,0.13088 -0.715454,0.44963 -1.125389,0.70833 -0.622537,0.39287 -0.950354,0.56198 -1.989667,1.02636 -1.238825,0.55354 -1.249946,0.5575 -2.514329,0.89455 l -1.27,0.33856 -0.973666,0.0589 c -0.535517,0.0324 -1.060484,0.0744 -1.166593,0.0933 -0.115739,0.0207 -0.674666,0.006 -1.397,-0.0363 l -1.204074,-0.0708 -0.889,-0.32764 c -0.705045,-0.25984 -1.067092,-0.42421 -1.749675,-0.79432 l -0.860679,-0.46669 -0.837849,-0.74646 c -0.728501,-0.64903 -0.947233,-0.87629 -1.675951,-1.74129 -0.460955,-0.54715 -1.049799,-1.24248 -1.308544,-1.54516 -0.28161,-0.32943 -0.599584,-0.76274 -0.792163,-1.0795 -0.176945,-0.29105 -0.380191,-0.62442 -0.451659,-0.74084 -0.221441,-0.36072 -0.691341,-1.93475 -0.954159,-3.19616 -0.473812,-2.27411 -0.581914,-2.8441 -0.560493,-2.95536 0.01205,-0.0626 0.03407,-0.55196 0.04893,-1.08748 0.02388,-0.86051 0.04849,-1.11018 0.211793,-2.1484 0.179058,-1.13837 0.195318,-1.20642 0.525256,-2.19773 l 0.340482,-1.02299 0.518685,-0.84568 c 0.486779,-0.79365 0.557424,-0.88633 1.148334,-1.50644 0.628574,-0.65963 0.631207,-0.66176 1.545167,-1.24786 0.641151,-0.41115 1.131197,-0.68806 1.635188,-0.92398 1.241239,-0.58103 1.067821,-0.53357 2.511912,-0.68735 l 1.288932,-0.13726 1.211076,0.11918 1.211081,0.11919 0.939558,0.35517 0.939559,0.35516 0.866513,0.64577 c 0.793369,0.59125 0.890955,0.67838 1.156068,1.03216 0.159258,0.21252 0.465226,0.61515 0.679932,0.89474 0.370324,0.48222 0.404584,0.54509 0.667017,1.22394 0.40303,1.04252 0.393328,0.994 0.42741,2.13793 0.03441,1.15491 0.01182,1.28524 -0.264841,1.52815 -0.207484,0.18217 -0.284616,0.20499 -1.007932,0.29816 -0.800506,0.10312 -1.102609,0.1047 -1.293418,0.007 -0.210279,-0.10793 -1.152293,-0.86783 -1.304066,-1.05196 -0.175645,-0.21308 -0.210037,-0.41139 -0.241372,-1.39166 l -0.02706,-0.84666 -0.298547,-0.67734 -0.298552,-0.67733 -0.491299,-0.49834 c -0.483934,-0.49088 -0.507649,-0.50817 -1.582048,-1.15359 -0.949697,-0.57051 -1.113925,-0.65524 -1.27,-0.65525 -0.09859,0 -0.626385,0.0488 -1.172879,0.10848 l -0.993627,0.10848 -0.727481,0.33468 c -1.029894,0.47381 -2.215617,1.22896 -2.644559,1.68423 -0.325306,0.34527 -0.349398,0.38934 -1.09195,1.99748 -0.143612,0.31102 -0.537748,1.25615 -0.618567,1.48332 -0.03002,0.0844 -0.07625,0.60204 -0.105846,1.18534 -0.04666,0.91948 -0.0444,1.12254 0.02017,1.81229 0.07854,0.83896 0.04321,0.70632 0.593785,2.22888 0.109452,0.30268 0.369599,0.95352 0.578104,1.44631 0.375458,0.88737 0.384103,0.90261 0.900188,1.5875 0.286601,0.38034 0.623689,0.78682 0.749084,0.90328 0.969379,0.90038 1.282087,1.17153 1.867133,1.61902 l 0.66548,0.50901 0.766746,0.30113 c 0.722088,0.28359 0.827574,0.3124 1.811024,0.49454 l 1.044275,0.1934 1.502833,-0.0172 c 1.330236,-0.0152 1.653299,-0.0332 2.812965,-0.15656 l 1.310128,-0.13939 1.298152,-0.43158 1.298151,-0.43159 1.533843,-1.05512 1.533842,-1.05512 0.763804,-0.81864 c 0.693128,-0.74289 0.830533,-0.91721 1.484943,-1.88383 0.396625,-0.58586 0.755527,-1.1548 0.797564,-1.26431 0.08835,-0.23015 0.492473,-1.53501 0.770886,-2.48906 0.31176,-1.06831 0.778227,-3.82717 0.912605,-5.3975 0.185336,-2.16579 0.190187,-2.31995 0.188409,-5.99016 l -0.0017,-3.57717 -0.175818,-2.45533 c -0.292833,-4.08944 -0.341614,-4.71878 -0.498645,-6.43327 -0.09816,-1.07174 -0.172148,-1.69033 -0.211213,-1.76588 -0.03307,-0.0639 -0.08923,-0.36937 -0.124791,-0.67873 -0.370349,-3.2216 -0.522689,-3.99167 -1.116444,-5.64359 -0.561729,-1.56282 -0.84844,-2.18966 -1.254739,-2.7432 -0.28155,-0.3836 -0.404956,-0.50958 -0.756772,-0.77259 -0.443111,-0.33125 -0.538514,-0.36165 -0.904921,-0.28837 -0.194145,0.0388 -1.597427,1.57912 -1.743884,1.91415 -0.109178,0.24975 -0.189475,0.39687 -1.251653,2.29331 -0.345579,0.61701 -0.711504,1.32186 -0.813164,1.56633 -1.148922,2.76293 -1.695661,4.13975 -1.933223,4.86834 -0.771961,2.36755 -1.58695,4.80927 -1.865139,5.588 -0.622707,1.74313 -1.115954,3.08319 -1.181545,3.21003 -0.06125,0.11844 -0.310367,0.34597 -0.378799,0.34597 -0.03015,0 -0.291338,0.10205 -2.757644,1.0775 -4.323812,1.71013 -5.198804,2.05608 -6.646333,2.62784 -3.823526,1.51026 -3.177997,1.29229 -6.201834,2.09412 l -2.7305,0.72404 -3.259666,1.23144 c -1.792817,0.6773 -3.650192,1.37943 -4.1275,1.56028 -0.477309,0.18086 -1.498974,0.56754 -2.270367,0.85929 -0.771394,0.29176 -1.467547,0.55763 -1.547006,0.59083 -0.07946,0.0332 -0.388517,0.25161 -0.686792,0.48536 -0.516962,0.40512 -0.55294,0.4435 -0.769472,0.82073 l -0.227152,0.39573 -0.0013,0.54156 c -0.0012,0.51724 0.0064,0.5657 0.169566,1.0795 0.108202,0.34071 0.304981,0.80445 0.536709,1.26484 l 0.36587,0.7269 0.362875,0.17019 c 1.165501,0.54665 3.224948,1.58794 4.511541,2.28112 0.814917,0.43904 1.643592,0.88538 1.8415,0.99184 0.197908,0.10646 0.899701,0.48393 1.55954,0.83882 0.822405,0.44233 1.587941,0.89843 2.434167,1.45025 0.678953,0.44275 1.277232,0.83849 1.32951,0.87943 0.159286,0.12472 1.500227,1.74694 1.559378,1.88647 0.03045,0.0718 0.131814,0.58617 0.22526,1.143 l 0.169902,1.01242 0.0065,1.35466 c 0.0065,1.35379 0.0064,1.35532 -0.144835,2.35982 -0.221961,1.47379 -0.758838,4.52512 -1.048422,5.95868 -0.138747,0.68686 -0.298601,1.48089 -0.35523,1.76451 -0.05663,0.28361 -0.341799,1.36263 -0.63371,2.39781 -0.783511,2.7785 -0.833311,3.02481 -0.995655,4.92447 l -0.134396,1.57262 0.230193,0.76433 c 0.214668,0.71278 0.251318,0.79738 0.543389,1.25433 0.460264,0.72007 0.41909,0.68393 0.89725,0.78762 l 0.414721,0.0899 1.088113,-0.11389 1.088112,-0.11388 0.423334,-0.22375 c 0.232833,-0.12307 0.766233,-0.40012 1.185333,-0.61567 1.801999,-0.92684 2.261083,-1.16415 2.553631,-1.32005 0.213145,-0.11359 0.636287,-0.44556 1.354667,-1.0628 l 1.044702,-0.89763 1.735667,-1.04611 1.735667,-1.04612 2.228502,-0.74269 c 1.715639,-0.57177 2.277949,-0.74269 2.443366,-0.74269 0.162463,0 0.532007,0.10886 1.515199,0.44635 1.361046,0.4672 1.249909,0.41718 3.316766,1.4925 0.337608,0.17565 1.221973,0.69134 1.965257,1.14598 1.200417,0.73426 1.43712,0.89782 2.118352,1.46381 1.092433,0.90762 1.181489,0.97482 1.652558,1.24686 0.232833,0.13446 1.042458,0.60718 1.799167,1.05049 3.946067,2.31177 3.783761,2.22191 4.605595,2.54982 0.866043,0.34555 0.755718,0.33507 1.55934,0.14819 l 0.475831,-0.11065 0.21872,-0.38469 0.218719,-0.38468 -0.02787,-1.29458 c -0.01533,-0.71201 -0.03794,-1.35172 -0.05025,-1.42157 -0.02638,-0.14969 -0.948156,-3.31645 -1.094304,-3.75946 -0.05526,-0.1675 -0.406539,-0.98628 -0.780626,-1.81952 -0.374087,-0.83325 -0.680161,-1.52182 -0.680161,-1.53017 0,-0.008 -0.154411,-0.30768 -0.343133,-0.66518 -0.618465,-1.17157 -0.775869,-1.47018 -2.068242,-3.9235 -1.374771,-2.60975 -1.395442,-2.659 -1.272438,-3.03171 0.06695,-0.20286 0.278735,-0.44359 0.455083,-0.51727 0.07595,-0.0317 1.476426,-0.26733 3.112161,-0.52354 1.635738,-0.25621 3.412219,-0.54088 3.947735,-0.6326 0.831351,-0.14239 5.060269,-0.88542 6.519334,-1.14545 0.472499,-0.0842 0.678655,-0.11471 4.847165,-0.71715 1.29223,-0.18675 2.40665,-0.35164 2.4765,-0.36641 0.11467,-0.0242 1.19451,-0.39332 4.38238,-1.49784 0.77669,-0.2691 1.34193,-0.49873 2.01083,-0.81692 l 0.93046,-0.4426 0.18042,-0.36199 0.18042,-0.36199 -0.087,-0.22518 c -0.0787,-0.20374 -0.13883,-0.26641 -0.6312,-0.65799 -0.2993,-0.23804 -0.60805,-0.46966 -0.68609,-0.51471 -0.30691,-0.17719 -5.08931,-2.12535 -5.27787,-2.15 -0.59753,-0.0781 -5.07312,-1.15417 -6.73852,-1.62011 -3.037892,-0.84993 -5.192896,-1.44132 -6.561672,-1.8007 -0.808685,-0.21233 -0.767728,-0.1913 -1.564682,-0.80319 -0.699753,-0.53727 -0.795859,-0.63526 -0.870937,-0.88808 -0.09544,-0.32141 -0.02874,-0.57015 0.251244,-0.93697 0.129769,-0.17002 0.622068,-0.61445 0.832862,-0.75188 0.05994,-0.0391 0.534666,-0.1957 1.054934,-0.34804 0.833179,-0.24396 1.107842,-0.30242 2.304013,-0.4904 0.746938,-0.11738 1.531616,-0.23083 1.743735,-0.25211 0.717102,-0.0719 6.122803,-0.58847 7.700003,-0.73576 0.86148,-0.0804 1.73778,-0.17514 1.94733,-0.21043 0.28774,-0.0485 1.00269,-0.0739 2.921,-0.10419 l 2.54,-0.0401 1.24883,0.23142 c 0.686859,0.12729 1.305989,0.24942 1.375839,0.27142 0.0699,0.022 0.55562,0.088 1.0795,0.14668 0.52387,0.0587 1.03654,0.13782 1.13925,0.17584 0.24258,0.0898 0.99758,0.79749 1.15733,1.08483 0.13506,0.24294 0.1469,0.43377 0.0454,0.73194 -0.0743,0.21813 -0.24087,0.40162 -1.11432,1.22715 -0.45881,0.43365 -0.17067,0.31024 -2.5136,1.07654 -0.7189,0.23513 -1.379749,0.46457 -1.468539,0.50987 -0.16348,0.0834 -0.28717,0.10796 -1.69052,0.33566 -0.43075,0.0699 -0.84985,0.14727 -0.93134,0.17194 -0.17053,0.0516 -2.29742,0.016 -2.65334,-0.0444 -0.13838,-0.0235 -0.62214,-0.23283 -1.31233,-0.56785 -1.37132,-0.66562 -1.27905,-0.61109 -1.44642,-0.85476 -0.13369,-0.19466 -0.14073,-0.22306 -0.12633,-0.50995 0.0132,-0.26372 0.0324,-0.32517 0.14537,-0.46567 0.0716,-0.089 0.20655,-0.20458 0.29997,-0.25681 0.0934,-0.0522 0.66321,-0.21832 1.26621,-0.36911 0.60301,-0.1508 1.42975,-0.36946 1.83721,-0.48592 0.81564,-0.23313 0.95659,-0.24893 1.20686,-0.13523 0.46322,0.21044 0.6465,0.73518 0.42201,1.20825 -0.11781,0.24826 -0.33102,0.3739 -0.89543,0.52764 -0.27658,0.0753 -0.53094,0.15473 -0.56525,0.17642 -0.0407,0.0257 0.1142,0.0406 0.44564,0.0428 0.2794,0.002 0.57467,0.0106 0.65617,0.0195 0.0815,0.009 0.69109,-0.0702 1.35466,-0.17579 1.32026,-0.21004 1.19958,-0.1706 2.06077,-0.67357 l 0.430929,-0.25168 0.13332,-0.50255 c 0.0733,-0.2764 0.11753,-0.51718 0.0982,-0.53507 -0.0193,-0.0179 -0.416089,-0.10341 -0.881759,-0.19006 l -0.84666,-0.15754 -2.39151,0.0297 c -1.31533,0.0163 -2.40435,0.0376 -2.42005,0.0473 -0.0272,0.0168 -0.36978,0.0518 -2.89311,0.29511 -0.60537,0.0584 -1.24354,0.12164 -1.41817,0.14058 -0.40195,0.0436 -2.51207,0.70891 -2.75198,0.86767 l -0.16902,0.11186 v 0.35194 c 0,0.30087 0.0304,0.45206 0.20973,1.04168 0.11534,0.37935 0.21535,0.69517 0.22225,0.70182 0.007,0.007 0.43162,0.21273 0.94386,0.45794 l 0.93133,0.44583 2.13783,0.48694 c 2.07151,0.47182 2.2173,0.49876 4.699,0.86855 1.40864,0.2099 2.63762,0.40863 2.73106,0.44162 0.0934,0.033 0.24584,0.0721 0.33867,0.087 3.126519,0.50052 3.529959,0.57791 5.333439,1.02316 1.00118,0.24718 1.92511,0.46515 2.05317,0.48437 0.40579,0.0609 2.686014,1.04198 3.958164,1.70299 0.62865,0.32664 1.20215,0.638 1.27445,0.6919 0.1522,0.11349 0.6683,0.79182 0.73409,0.96485 0.0677,0.17809 0.0518,0.49411 -0.0343,0.68338 -0.082,0.18018 -0.47091,0.54122 -0.66072,0.61338 -0.10956,0.0417 -1.07857,0.21749 -6.647514,1.20623 -3.59041,0.63746 -3.61639,0.64258 -3.85233,0.75832 -0.15327,0.0752 -0.49199,0.15069 -1.227669,0.27366 -0.5588,0.0934 -1.9026,0.32313 -2.98622,0.51049 -1.08363,0.18736 -2.30283,0.38931 -2.70934,0.44877 -0.40651,0.0595 -1.97735,0.28739 -3.49077,0.50649 -1.51342,0.2191 -3.22396,0.46686 -3.80121,0.55058 -0.90038,0.13058 -2.017111,0.31819 -4.411459,0.74112 -4.314935,0.76217 -4.724336,0.8304 -8.001,1.33335 -0.6985,0.10722 -1.303481,0.20829 -1.344405,0.22461 -0.06907,0.0275 -0.0672,0.0433 0.02604,0.22017 1.988997,3.77218 2.765522,5.25561 3.213227,6.13833 0.301129,0.59373 0.696569,1.36525 0.878755,1.7145 0.182186,0.34925 0.511747,1.016 0.732358,1.48167 0.220616,0.46566 0.528807,1.11336 0.684873,1.43933 0.156066,0.32597 0.443294,0.93036 0.638285,1.34308 0.292934,0.62006 1.275584,2.52175 2.357505,4.56242 0.117272,0.22119 0.655249,1.19274 1.195507,2.159 0.896137,1.60276 1.573606,2.86664 2.076276,3.8735 0.182309,0.36518 0.986308,2.51531 1.590888,4.2545 0.38198,1.09883 0.38296,1.36518 0.006,1.69591 -0.24855,0.21823 -0.41175,0.25033 -1.07281,0.21101 z"
       id="path856" /></g></svg>
