<?xml version="1.0" encoding="UTF-8" standalone="no"?>
<!-- Created with Inkscape (http://www.inkscape.org/) -->

<svg
   width="auto"
   height="80"
   viewBox="0 0 205.43819 99.432448"
   version="1.1"
   id="svg5"
   xml:space="preserve"
   inkscape:version="1.2.1 (9c6d41e410, 2022-07-14)"
   sodipodi:docname="logo.svg"
   inkscape:export-filename="logo.png"
   inkscape:export-xdpi="96"
   inkscape:export-ydpi="96"
   xmlns:inkscape="http://www.inkscape.org/namespaces/inkscape"
   xmlns:sodipodi="http://sodipodi.sourceforge.net/DTD/sodipodi-0.dtd"
   xmlns="http://www.w3.org/2000/svg"
   xmlns:svg="http://www.w3.org/2000/svg"><sodipodi:namedview
     id="namedview7"
     pagecolor="#ffffff"
     bordercolor="#000000"
     borderopacity="0.25"
     inkscape:showpageshadow="2"
     inkscape:pageopacity="0.0"
     inkscape:pagecheckerboard="0"
     inkscape:deskcolor="#d1d1d1"
     inkscape:document-units="mm"
     showgrid="false"
     inkscape:zoom="1.0444209"
     inkscape:cx="382.98736"
     inkscape:cy="253.72912"
     inkscape:window-width="1920"
     inkscape:window-height="1009"
     inkscape:window-x="-8"
     inkscape:window-y="-8"
     inkscape:window-maximized="1"
     inkscape:current-layer="layer1" /><defs
     id="defs2" /><g
     inkscape:label="Calque 1"
     inkscape:groupmode="layer"
     id="layer1"
     transform="translate(-18.418748,-26.297246)"><ellipse
       style="fill:#fff1f3;fill-opacity:1;stroke:none;stroke-width:0.576564;stroke-opacity:1"
       id="path894"
       cx="123.41763"
       cy="62.526447"
       rx="45.074501"
       ry="26.174673" /><ellipse
       style="fill:#fff1f3;fill-opacity:1;stroke:none;stroke-width:0.507874;stroke-opacity:1"
       id="path894-9"
       cx="183.35696"
       cy="84.756424"
       rx="40.246037"
       ry="22.745989" /><path
       style="fill:#d72483;fill-opacity:1;stroke:none;stroke-width:0.567596;stroke-dasharray:none;stroke-opacity:1"
       d="m 101.28562,125.6907 c -0.26862,-0.0184 -0.52255,-0.0632 -0.62062,-0.10944 -0.20494,-0.0966 -11.908383,-8.44733 -12.083585,-8.62188 -0.111699,-0.11128 -0.797692,-0.58061 -3.409675,-2.33277 -0.388956,-0.26091 -0.991332,-0.6827 -1.338613,-0.93731 -0.347282,-0.25462 -1.290626,-0.94409 -2.096319,-1.53216 -1.307063,-0.95403 -2.647367,-1.94879 -4.349169,-3.22793 -0.30835,-0.23177 -0.922091,-0.62199 -1.36387,-0.86715 -0.441772,-0.24514 -1.144196,-0.63438 -1.560935,-0.86494 -0.416737,-0.23055 -1.428274,-0.72927 -2.247858,-1.10826 -1.356077,-0.62708 -1.598845,-0.7225 -2.698125,-1.06066 l -1.207974,-0.3716 -2.302728,0.69115 -2.302733,0.69116 -1.913034,1.03604 c -1.882767,1.01966 -1.928128,1.04771 -2.867547,1.77324 -0.524989,0.40546 -1.01967,0.8186 -1.099295,0.91807 -0.07962,0.0995 -0.224553,0.21515 -0.322066,0.25703 -0.205417,0.0883 -0.280618,0.14451 -2.921414,2.18633 l -1.989658,1.53838 -2.339611,2.21057 c -2.188655,2.06794 -3.103768,2.89278 -5.237505,4.72084 -1.197383,1.02584 -2.595693,2.14806 -2.788314,2.23776 -0.09345,0.0435 -0.281004,0.0753 -0.444504,0.0753 -0.42888,0 -0.749025,-0.17646 -0.943734,-0.52017 -0.116734,-0.20607 -0.127442,-0.30009 -0.191725,-1.68326 l -0.04821,-1.0376 0.221328,-1.72839 c 0.196596,-1.53524 0.266803,-1.92765 0.628264,-3.51142 0.223814,-0.98066 0.578083,-2.61732 0.787264,-3.63701 0.331504,-1.61597 0.437888,-2.03564 0.828695,-3.2689 0.246601,-0.7782 0.635541,-2.16585 0.864309,-3.08365 0.228769,-0.9178 0.559255,-2.13164 0.734415,-2.6974 0.175159,-0.56578 0.468078,-1.51485 0.650932,-2.109058 0.525271,-1.706928 1.522229,-6.37692 2.077624,-9.732122 l 0.185416,-1.120103 -0.02507,-1.302986 c -0.02202,-1.143863 -0.04246,-1.399103 -0.167412,-2.090014 L 47.240217,84.683409 46.602595,83.994031 45.964972,83.304663 44.504144,82.445945 C 43.661771,81.950768 42.572839,81.358716 41.932016,81.047479 41.3208,80.750628 39.728539,79.977519 38.393656,79.32946 L 35.966598,78.151169 33.897936,77.593428 C 31.96534,77.072373 31.716311,76.99279 30.11181,76.383514 c -0.944607,-0.358702 -2.524423,-0.958194 -3.510703,-1.33221 -0.98628,-0.374016 -2.077376,-0.815228 -2.424658,-0.980475 -0.660611,-0.314347 -1.708874,-0.809632 -2.778254,-1.312672 -1.14922,-0.540602 -1.282325,-0.617042 -2.031233,-1.166543 -0.557955,-0.409374 -0.768793,-0.593217 -0.846104,-0.737761 -0.138127,-0.258253 -0.135914,-0.611695 0.0054,-0.862681 0.121844,-0.216416 1.325707,-1.293676 1.575485,-1.409795 0.323133,-0.150235 4.490435,-1.243933 5.665886,-1.487012 0.666782,-0.137881 1.598759,-0.33045 2.071063,-0.427929 0.472304,-0.09752 1.449743,-0.300437 2.172089,-0.451018 0.722346,-0.150569 2.268065,-0.472033 3.434932,-0.714368 1.166866,-0.242336 3.008091,-0.624862 4.09161,-0.850057 1.083519,-0.225207 2.220076,-0.469518 2.525685,-0.542924 0.305607,-0.07344 2.362778,-0.568194 4.57149,-1.099529 2.208713,-0.531347 4.981915,-1.198435 6.162672,-1.482423 1.96325,-0.472196 2.259145,-0.556542 3.460189,-0.986458 2.0208,-0.723343 5.618174,-2.01041 7.021404,-2.512133 0.694563,-0.248339 2.206185,-0.789329 3.359162,-1.202203 1.152975,-0.412883 2.297024,-0.820799 2.542335,-0.906495 0.245304,-0.08575 0.466539,-0.189794 0.491629,-0.23133 0.0775,-0.128301 1.635567,-4.087812 1.913242,-4.862119 1.536648,-4.28496 1.863511,-5.12183 2.786573,-7.13439 0.50688,-1.105157 0.972778,-2.132814 1.035333,-2.283686 0.268769,-0.64821 3.919778,-8.446318 4.244117,-9.064905 0.900038,-1.716571 3.029231,-5.511386 3.184364,-5.675412 0.238752,-0.252455 0.502929,-0.36974 0.832819,-0.36974 0.342028,0 0.668979,0.142546 0.829031,0.361445 0.06735,0.09212 0.464863,0.93828 0.883348,1.88036 0.755877,1.701604 0.764202,1.724294 1.266743,3.450186 0.445121,1.528711 0.548189,1.959641 0.858364,3.588919 0.351933,1.848662 0.470287,2.722662 1.024604,7.566464 0.07194,0.62863 0.175975,1.533863 0.231192,2.011631 0.05521,0.477759 0.134872,1.166974 0.177009,1.531573 0.281528,2.435866 0.573907,5.799697 0.906035,10.423887 0.119666,1.666159 0.142983,2.52871 0.142736,5.280522 -5.05e-4,3.649407 -0.116507,5.731409 -0.446476,8.000797 -0.232317,1.597763 -0.673039,3.789145 -0.896497,4.457583 -0.09667,0.289173 -0.247356,0.752071 -0.334865,1.028672 -0.434938,1.374794 -1.381691,3.927252 -1.618074,4.362374 -0.138706,0.255304 -0.25219,0.47105 -0.25219,0.479421 0,0.01598 -0.382864,0.749781 -0.956407,1.833154 -0.186371,0.352028 -0.764632,1.267553 -1.285017,2.034483 -0.785934,1.15828 -1.000596,1.440876 -1.267582,1.66874 -0.176783,0.150872 -0.624546,0.533723 -0.995033,0.850781 -0.620576,0.531096 -0.777023,0.635173 -1.986973,1.321906 -1.376145,0.781046 -1.435176,0.809028 -3.258133,1.5441 -1.073068,0.432691 -1.217254,0.477488 -2.581185,0.801912 -0.794545,0.188984 -1.521943,0.354975 -1.616439,0.368853 -0.09449,0.01393 -0.6378,0.04698 -1.207343,0.07355 -0.569541,0.02657 -1.137821,0.06836 -1.262842,0.09288 -0.161216,0.03165 -0.653283,0.01955 -1.69221,-0.04169 l -1.464897,-0.08618 -1.034692,-0.350322 C 63.069202,90.575473 62.52873,90.353766 61.784738,89.994016 60.775011,89.505783 60.77239,89.504109 59.867638,88.77286 59.36934,88.370117 58.888702,87.978886 58.799546,87.90345 58.710386,87.827966 58.139918,87.231385 57.531823,86.577602 56.923734,85.923819 56.233722,85.182116 55.99846,84.92937 55.747103,84.659323 55.354804,84.146207 55.04713,83.685049 54.532709,82.914003 54.517418,82.882846 54.173602,81.90437 53.981134,81.356619 53.7438,80.558725 53.646188,80.131251 53.548578,79.703776 53.334837,78.756522 53.171212,78.026234 l -0.297495,-1.327792 0.05004,-1.209601 c 0.04287,-1.035985 0.07947,-1.383487 0.255009,-2.421145 0.199231,-1.177698 0.21684,-1.244278 0.630376,-2.383011 l 0.425417,-1.171467 0.650448,-0.945094 c 0.602644,-0.875642 0.703302,-0.995097 1.369674,-1.625509 L 56.97392,66.2622 58.171362,65.573114 c 0.658588,-0.378995 1.209991,-0.689087 1.225337,-0.689087 0.01535,0 0.477434,-0.187375 1.026872,-0.416394 l 0.998969,-0.416393 1.560237,-0.152762 1.560232,-0.152763 1.449214,0.130936 1.449212,0.130936 1.069169,0.365969 c 0.58804,0.201297 1.121227,0.391199 1.184859,0.422022 0.06363,0.03078 0.55413,0.353809 1.090005,0.717748 l 0.974312,0.661721 0.823072,0.98894 0.823074,0.988942 0.37024,0.868653 c 0.368342,0.864183 0.370469,0.87171 0.413178,1.463005 0.06454,0.893536 0.06739,1.857693 0.0058,1.995119 -0.07481,0.167211 -0.349827,0.441935 -0.524009,0.523451 -0.172317,0.08067 -1.537858,0.247292 -2.027049,0.247368 -0.214573,3.2e-5 -0.401488,-0.02711 -0.498061,-0.07225 -0.259629,-0.121519 -1.422692,-0.973184 -1.571237,-1.150559 -0.199989,-0.238803 -0.228216,-0.386122 -0.264986,-1.383065 -0.01808,-0.49034 -0.05041,-0.953237 -0.07186,-1.028673 -0.02144,-0.07549 -0.191261,-0.447152 -0.377382,-0.826038 l -0.338386,-0.68893 -0.565668,-0.509358 c -0.545594,-0.491268 -0.612255,-0.534564 -1.878145,-1.219872 -1.471747,-0.796759 -1.300136,-0.748604 -2.299565,-0.645294 -0.347115,0.03585 -0.890951,0.08942 -1.208531,0.118884 -0.567768,0.05271 -0.592303,0.05994 -1.468786,0.429526 -1.106761,0.46671 -2.550519,1.277445 -3.049417,1.712382 -0.328849,0.286689 -0.375503,0.355116 -0.87664,1.28576 -0.291121,0.540623 -0.705489,1.373853 -0.920819,1.851612 l -0.391511,0.868653 -0.06338,1.105535 c -0.05633,0.982548 -0.05375,1.198692 0.02318,1.943052 l 0.08654,0.837518 0.454396,1.142967 c 0.249922,0.628629 0.645611,1.552653 0.879307,2.053372 0.416147,0.891635 0.437853,0.926043 1.052818,1.66874 0.54878,0.662768 0.740357,0.851816 1.520285,1.500242 0.490806,0.408056 1.236585,0.977622 1.657288,1.265716 0.802462,0.5495 0.809998,0.552978 2.288695,1.05672 0.185457,0.06318 0.907278,0.209633 1.604054,0.325438 l 1.266857,0.210574 1.680798,-0.02527 c 1.378292,-0.02074 1.973778,-0.05194 3.308647,-0.173465 l 1.62785,-0.148161 1.547382,-0.466991 1.547382,-0.46698 1.837036,-1.147037 1.837037,-1.147039 0.911833,-0.889421 c 0.840235,-0.81958 0.98183,-0.983918 1.803208,-2.092898 l 0.891371,-1.203478 0.37715,-1.120104 c 0.780694,-2.31859 0.76312,-2.256535 1.06166,-3.748948 0.295071,-1.47508 0.532556,-3.180138 0.671808,-4.823326 0.12691,-1.497651 0.131725,-1.691398 0.131795,-5.303385 0,-3.743592 0,-3.751919 -0.160199,-5.829147 -0.484885,-6.293589 -0.763449,-9.235075 -0.915723,-9.669527 -0.05794,-0.1653 -0.178823,-0.928408 -0.304182,-1.920189 -0.283302,-2.241319 -0.52257,-3.237367 -1.162549,-4.839504 -0.713749,-1.786846 -0.989961,-2.335342 -1.48181,-2.942578 -0.357066,-0.440833 -0.494033,-0.567945 -0.929299,-0.862379 l -0.510508,-0.345331 -0.346841,0.03089 -0.346842,0.03089 -0.926518,0.916032 c -0.716613,0.708494 -0.948384,0.968108 -1.023053,1.145969 -0.08811,0.209871 -0.676668,1.185409 -1.7931,2.972082 -0.331871,0.531107 -0.657452,1.189934 -1.502461,3.040304 -1.039739,2.276775 -1.119388,2.473944 -2.201032,5.448284 -0.617238,1.697305 -1.43461,3.86781 -1.816378,4.823337 -0.381771,0.955516 -0.770187,1.93181 -0.863143,2.169544 -0.179858,0.459971 -0.341058,0.668805 -0.611735,0.792494 -0.09212,0.04212 -0.747138,0.281592 -1.455593,0.532188 -0.708455,0.250597 -2.674701,0.952417 -4.369437,1.559598 -1.694733,0.607182 -3.388205,1.213197 -3.763269,1.346692 -0.375065,0.133497 -1.227484,0.438102 -1.894264,0.676884 -4.310689,1.543743 -3.544932,1.310912 -7.177705,2.182374 l -3.278632,0.786511 -3.738014,1.279713 c -2.055909,0.703839 -4.181273,1.431264 -4.723032,1.616491 -0.54176,0.185225 -1.900604,0.650985 -3.019655,1.035012 l -2.034636,0.698233 -0.647326,0.457186 c -0.626683,0.442604 -0.656624,0.471763 -0.938864,0.914379 l -0.291538,0.457184 0.02796,0.640067 c 0.02673,0.611848 0.03798,0.665511 0.255144,1.217679 0.124949,0.317696 0.400306,0.890479 0.611906,1.272865 l 0.384725,0.695265 1.803238,0.794902 c 0.991781,0.437194 1.882797,0.833878 1.980037,0.881516 0.361784,0.177213 2.22059,1.081808 2.87928,1.401199 2.77993,1.347977 4.246875,2.061018 4.41995,2.148376 0.312596,0.157806 3.111547,1.806285 3.293044,1.9395 0.200319,0.147005 1.749048,1.822571 1.853347,2.005118 0.042,0.07355 0.167114,0.625412 0.278039,1.226481 l 0.201681,1.092834 0.01344,1.508721 0.01344,1.50872 -0.188586,1.109639 c -0.103727,0.610303 -0.254234,1.443522 -0.334472,1.851612 -0.08023,0.408077 -0.251947,1.297455 -0.381578,1.97638 -0.20519,1.074647 -0.40685,2.016036 -0.964677,4.503298 -0.07049,0.314315 -0.238702,0.921238 -0.373796,1.348701 -1.292553,4.089947 -1.362616,4.382257 -1.562658,6.519717 l -0.156625,1.67351 0.281215,0.83743 c 0.274525,0.81751 0.291846,0.85218 0.728089,1.45822 l 0.446873,0.6208 0.497679,0.10276 0.497679,0.10275 1.2881,-0.11734 1.288099,-0.11733 2.668271,-1.24261 2.668274,-1.24261 1.284236,-0.99612 1.284235,-0.9961 2.055129,-1.11734 2.055131,-1.11733 2.655465,-0.79895 c 1.460502,-0.43942 2.73618,-0.81174 2.83484,-0.82738 0.193083,-0.0306 0.320489,0.003 2.295791,0.61733 0.929018,0.28861 1.842362,0.65444 2.623238,1.05071 0.08526,0.0433 0.461887,0.2196 0.836952,0.39186 0.692491,0.31807 0.917939,0.43752 2.920742,1.54757 0.974667,0.5402 1.284128,0.74245 2.282861,1.4919 0.761064,0.57111 1.324412,0.95524 1.650746,1.12556 0.486746,0.25405 1.784403,0.94149 4.587004,2.42997 2.159633,1.14699 2.211505,1.17181 3.169734,1.51637 0.493136,0.17732 0.925028,0.32245 0.959762,0.32251 0.03473,0 0.37324,-0.0654 0.752254,-0.14533 l 0.689114,-0.14545 0.262629,-0.41472 0.262631,-0.41471 -0.05105,-1.50872 -0.05107,-1.50872 -0.461266,-1.41729 c -0.972202,-2.98719 -0.771141,-2.48087 -1.870683,-4.71092 -0.648031,-1.3143 -1.215022,-2.35312 -2.095071,-3.8385 -0.08938,-0.150872 -0.807321,-1.383961 -1.595405,-2.740212 -1.359885,-2.340255 -1.433897,-2.480296 -1.452775,-2.748646 -0.01425,-0.202549 0.0047,-0.32951 0.06653,-0.447606 0.116722,-0.222614 0.432039,-0.472098 0.66672,-0.527511 0.105757,-0.02495 0.862861,-0.139393 1.682444,-0.254247 0.819586,-0.114855 2.217553,-0.311972 3.106593,-0.438047 0.889042,-0.126077 1.832385,-0.259064 2.096319,-0.295535 0.263934,-0.0365 0.673095,-0.09699 0.909248,-0.134521 0.236151,-0.03747 1.213591,-0.192862 2.172088,-0.345235 0.958498,-0.152384 2.902013,-0.461255 4.318921,-0.686387 1.416904,-0.225142 3.451344,-0.523569 4.520974,-0.663178 1.06963,-0.139619 2.87106,-0.375885 4.00319,-0.525038 l 2.05843,-0.271193 1.55331,-0.48576 c 0.85432,-0.267174 2.2807,-0.712285 3.16974,-0.989157 1.29808,-0.404244 1.84579,-0.602051 2.78098,-1.004395 l 1.16454,-0.50101 0.21133,-0.385647 0.21132,-0.385647 -0.0926,-0.217646 c -0.0801,-0.18838 -0.18699,-0.287467 -0.79495,-0.736866 -0.38634,-0.285565 -0.79336,-0.55612 -0.90449,-0.601209 -0.11108,-0.04514 -1.20222,-0.456914 -2.42465,-0.915135 -1.22243,-0.458222 -2.50674,-0.940774 -2.85402,-1.072337 -0.34728,-0.131562 -0.74508,-0.253621 -0.884,-0.271245 -0.43811,-0.05561 -5.31669,-1.072423 -6.18792,-1.289757 -0.45841,-0.114358 -1.6518,-0.413013 -2.65197,-0.663674 -4.670473,-1.170528 -5.701084,-1.425725 -6.727922,-1.666019 -0.605931,-0.141789 -1.168276,-0.288849 -1.249648,-0.3268 -0.326106,-0.152091 -1.72623,-1.165634 -1.856252,-1.343733 -0.381177,-0.522123 -0.1451,-1.080878 0.744794,-1.762783 0.483265,-0.370322 0.498429,-0.376371 1.815058,-0.723592 0.81754,-0.215606 1.221745,-0.290123 2.72774,-0.502835 0.972389,-0.13734 2.370356,-0.301215 3.10659,-0.364166 0.73623,-0.06296 2.64565,-0.228112 4.24315,-0.36704 1.5975,-0.138916 3.60921,-0.313752 4.47046,-0.38852 0.86126,-0.07473 1.63705,-0.154716 1.72398,-0.177654 0.0869,-0.023 1.23485,-0.0554 2.55094,-0.07204 1.31609,-0.01674 2.44971,-0.03844 2.51918,-0.04849 0.12633,-0.01814 8.09846,-0.09213 9.62285,-0.08932 1.1469,0.0022 6.5577,0.42905 8.37562,0.660878 l 1.40473,0.179135 0.63546,-0.114456 c 0.72621,-0.130807 0.95161,-0.219624 1.17226,-0.461882 0.2679,-0.294163 1.14266,-2.267358 1.10668,-2.496322 -0.0248,-0.15759 -0.28984,-0.148508 -0.98243,0.03369 -0.92847,0.244214 -1.45962,0.315601 -2.11472,0.284216 -1.04369,-0.05001 -1.60321,-0.269658 -2.34065,-0.918915 l -0.48119,-0.423663 -0.55701,0.406783 c -0.91859,0.670846 -1.4243,0.839894 -2.40366,0.80351 -0.47144,-0.01749 -0.64949,-0.04493 -0.9358,-0.144274 -0.72445,-0.251266 -1.25711,-0.713894 -1.52396,-1.323591 -0.21854,-0.499282 -0.25891,-0.490761 -1.19503,0.252097 -0.66966,0.53139 -1.27753,0.906118 -1.92161,1.184589 -0.79284,0.342783 -1.18039,0.424072 -2.02722,0.425217 -0.66071,8.63e-4 -0.73707,-0.0086 -1.16181,-0.140699 -0.25005,-0.07786 -0.72129,-0.267152 -1.04724,-0.420551 -0.75335,-0.354534 -0.86801,-0.360506 -1.42308,-0.0742 -0.74377,0.383628 -1.34926,0.526832 -2.22745,0.526832 -1.63356,0 -2.27297,-0.401221 -4.17069,-2.61715 l -0.69476,-0.811253 -0.80984,0.793628 c -0.44543,0.436503 -0.95325,0.906194 -1.1285,1.043772 -0.63981,0.502251 -1.17912,0.766887 -1.56437,0.767622 -0.20121,4.54e-4 -0.25446,-0.01998 -0.36622,-0.140213 -0.0719,-0.07732 -0.13078,-0.176953 -0.13078,-0.221297 0,-0.261763 0.84981,-1.44308 2.37078,-3.29563 2.04325,-2.488655 2.68161,-3.373951 2.61252,-3.623068 -0.0556,-0.200572 -0.19563,-0.234894 -1.09374,-0.268071 -1.16102,-0.04287 -1.62149,-0.198347 -1.82583,-0.616436 -0.0776,-0.158811 -0.0866,-0.232098 -0.0476,-0.389179 0.14146,-0.569783 0.6254,-0.738582 2.3469,-0.818598 0.55213,-0.02571 1.10317,-0.06934 1.22453,-0.09698 0.29543,-0.06728 0.63023,-0.342307 0.87994,-0.722738 0.28283,-0.430898 0.56259,-1.017927 1.61779,-3.394729 1.22942,-2.76922 1.72412,-3.815604 2.3194,-4.905901 0.93816,-1.7183 1.5239,-2.331961 2.22302,-2.328926 0.15318,6.48e-4 0.34651,0.03132 0.42961,0.06826 0.50159,0.222528 0.37869,0.618327 -1.53844,4.955104 -1.41539,3.20176 -1.81415,4.149381 -2.25222,5.352103 -0.20148,0.553194 -0.36226,1.009805 -0.35728,1.014698 0.005,0.0043 0.25847,-0.03942 0.56331,-0.09828 1.0764,-0.208175 1.5874,-0.191447 2.18537,0.0715 0.40331,0.177364 0.58567,0.403499 0.58567,0.726228 0,0.309692 -0.17284,0.500404 -0.63896,0.705091 -0.48848,0.214482 -0.98775,0.2975 -2.08665,0.346919 -1.1675,0.05249 -1.34119,0.09126 -1.6366,0.364718 -0.32328,0.299303 -0.69455,0.92696 -0.94512,1.597764 -0.26834,0.718354 -0.37468,1.255575 -0.37623,1.900588 -0.002,0.642075 0.10283,0.954965 0.50327,1.508721 0.6445,0.891236 1.4713,1.577298 1.90086,1.577298 0.34541,0 1.1839,-0.505621 1.9594,-1.181533 0.60729,-0.529283 0.87535,-0.875975 1.00223,-1.296192 0.12748,-0.422172 0.62952,-1.365721 1.10343,-2.07387 1.10139,-1.645693 1.98111,-2.480522 3.55658,-3.375084 0.9569,-0.543334 2.24996,-0.850856 3.57916,-0.851202 0.79208,0 1.17878,0.102595 1.48236,0.393866 0.19457,0.186716 0.30159,0.191792 0.70484,0.03348 0.67466,-0.264928 0.95027,-0.333603 1.34377,-0.334812 0.3175,-9.62e-4 0.41363,0.01684 0.55499,0.103135 0.27127,0.165462 0.29467,0.29737 0.12962,0.730514 -0.0776,0.203434 -0.32379,0.741757 -0.54727,1.196263 -0.90477,1.840012 -1.29919,2.836729 -1.58818,4.013434 -0.093,0.378347 -0.13367,0.705362 -0.15266,1.224795 -0.0247,0.67656 -0.0205,0.717912 0.0917,0.913333 0.0647,0.112576 0.19045,0.242529 0.27952,0.288773 0.15758,0.08186 0.16775,0.08175 0.37885,-0.0032 0.51768,-0.207885 1.7051,-1.203693 2.14054,-1.795172 0.13954,-0.189535 0.3302,-0.518711 0.42369,-0.731498 0.60611,-1.379653 1.46799,-2.523008 2.74209,-3.637669 2.1813,-1.908331 4.49161,-2.814092 7.18542,-2.817041 1.25167,-0.0011 2.10971,0.197451 2.56945,0.595399 0.29313,0.253739 0.34823,0.401771 0.26121,0.701658 -0.0863,0.29737 -0.61352,1.501657 -1.66829,3.81068 -2.21832,4.856211 -3.23304,7.147738 -3.18453,7.191639 0.12111,0.109606 1.27071,-0.385333 2.23096,-0.960484 1.12379,-0.673113 2.42486,-1.832646 2.83265,-2.524498 0.18502,-0.313926 0.19039,-0.336271 0.18194,-0.757795 -0.0393,-1.962697 -0.039,-1.973053 0.0784,-2.468815 0.24571,-1.038079 0.7694,-2.167708 1.40947,-3.040293 0.39799,-0.542599 1.14988,-1.243922 1.65349,-1.542297 1.3613,-0.806587 2.95715,-1.269895 4.36942,-1.268567 1.11528,0.0011 1.71561,0.263135 2.04462,0.892575 0.28546,0.54612 0.21313,0.918473 -0.32158,1.655402 -0.80478,1.109153 -1.98688,2.132588 -3.17203,2.746261 -0.75707,0.392019 -1.352,0.614298 -2.72489,1.018089 -0.42032,0.123613 -0.79539,0.258783 -0.83347,0.300362 -0.28795,0.314315 0.29621,1.373313 1.05508,1.912683 0.39235,0.278882 0.65718,0.35125 1.29065,0.35273 1.08124,0.0022 1.56174,-0.168378 3.59269,-1.277768 1.63503,-0.893137 2.61309,-1.293483 3.19403,-1.307392 0.26584,-0.0065 0.33029,0.0086 0.44122,0.102702 0.34621,0.293612 0.16755,0.725925 -0.56852,1.37569 -0.27062,0.238879 -0.67278,0.550958 -0.89367,0.693493 -1.5088,0.973627 -3.53524,1.870943 -5.05931,2.240282 -0.52646,0.127588 -0.67212,0.14422 -1.25243,0.143032 -0.74965,-0.0011 -1.04074,-0.05087 -2.06458,-0.350224 l -0.70068,-0.204838 -1.04204,0.87225 c -0.5731,0.479733 -1.24659,1.020659 -1.49663,1.202062 -0.89748,0.651083 -2.05323,1.28225 -3.26785,1.784589 -0.29706,0.122857 -0.53462,0.228338 -0.52791,0.234418 0.007,0.0065 0.59438,0.133701 1.30592,0.283623 0.71155,0.149921 1.35828,0.301938 1.43716,0.337804 0.15912,0.07236 0.53112,0.193002 2.99745,0.972211 0.93071,0.294055 1.75422,0.563324 1.83003,0.598359 0.0758,0.03509 0.68955,0.434667 1.36387,0.888061 1.20234,0.808402 1.24539,0.84308 2.22669,1.793789 0.55035,0.533204 1.05775,1.035067 1.12757,1.115265 0.0698,0.08024 0.3181,0.543086 0.5517,1.028674 0.3829,0.795852 0.42487,0.911205 0.42573,1.170429 0.001,0.350916 -0.0427,0.431223 -0.66753,1.220574 -0.52603,0.664582 -0.34681,0.538927 -2.06735,1.44957 -0.91136,0.482369 -1.02974,0.532221 -1.4383,0.605659 -0.31274,0.05626 -0.87395,0.240035 -1.88617,0.617787 -5.10979,1.906938 -5.79259,2.172201 -6.18792,2.403952 -0.223,0.130741 -1.23516,0.716994 -2.24922,1.302781 -1.01406,0.585788 -2.36814,1.368918 -3.00906,1.740288 -0.64094,0.37137 -1.26605,0.724186 -1.38913,0.784048 -0.22475,0.109294 -0.47997,0.244549 -4.45096,2.358874 -1.18585,0.631396 -2.72073,1.484108 -3.41084,1.894908 -1.15557,0.687888 -1.27316,0.77016 -1.48807,1.041244 -0.24774,0.31249 -0.24828,0.321874 -0.032,0.558702 0.10752,0.117684 0.18237,0.137502 1.00015,0.264593 0.90313,0.140342 1.30204,0.168238 8.10745,0.567039 1.11131,0.06512 2.94117,0.178724 4.06635,0.252443 1.1252,0.07377 3.34149,0.216286 4.92508,0.316831 1.58361,0.100542 2.98159,0.204116 3.10662,0.230186 0.33567,0.06999 4.95929,0.328247 5.37593,0.300254 0.19656,-0.01317 1.82353,-0.04536 3.6155,-0.07139 8.14445,-0.118592 7.91863,-0.111044 11.59289,-0.387268 l 3.3339,-0.25064 2.42466,-0.493936 2.42466,-0.493925 1.05709,-0.499163 1.05708,-0.499173 -0.53949,-0.235034 c -0.65893,-0.287078 -2.15037,-0.796706 -2.33158,-0.796706 -0.0727,0 -0.20073,-0.03208 -0.28462,-0.07139 -0.0839,-0.03931 -0.32712,-0.101946 -0.54052,-0.139252 -0.21339,-0.03736 -1.76867,-0.303028 -3.45617,-0.590452 l -3.06816,-0.522566 -1.28186,-0.507533 c -0.70502,-0.27914 -1.36512,-0.569653 -1.46689,-0.645574 -0.28676,-0.213943 -0.39888,-0.45307 -0.37456,-0.798855 0.016,-0.227756 0.0518,-0.32883 0.16952,-0.479594 0.15116,-0.193531 0.28665,-0.271473 1.46256,-0.841363 0.56875,-0.27563 0.38535,-0.241417 3.66225,-0.683287 0.84736,-0.114261 1.57076,-0.217679 1.60755,-0.229797 0.0368,-0.01209 1.25291,0.0296 2.70249,0.09266 2.34485,0.102054 2.84456,0.137891 4.52985,0.324629 1.23158,0.136466 1.98262,0.200335 2.14684,0.182569 0.17707,-0.01911 0.35827,0 0.60616,0.0635 0.25606,0.06577 1.14783,0.154738 3.23288,0.322533 3.32671,0.267703 7.55275,0.725881 7.81341,0.847108 0.51663,0.240283 1.56168,0.836665 1.74853,0.99784 0.28458,0.245498 0.40129,0.573583 0.31602,0.888353 -0.12793,0.472239 -0.42143,1.228423 -0.53561,1.379933 -0.1696,0.225056 -0.27805,0.274129 -1.62852,0.736887 -1.13296,0.388217 -2.47829,0.754359 -6.55202,1.783162 -1.02512,0.258891 -1.26153,0.372537 -1.67908,0.807138 l -0.25055,0.260781 0.10835,0.262617 c 0.0596,0.144436 0.13028,0.282488 0.15711,0.306776 0.0268,0.0243 0.35545,0.160981 0.73021,0.303765 0.5444,0.207387 1.03698,0.341418 2.4494,0.666488 1.90797,0.43912 1.88782,0.43617 5.1019,0.74651 0.66678,0.0644 1.31461,0.14721 1.43963,0.18405 0.14824,0.0436 0.83354,0.0987 1.97003,0.15833 2.08976,0.10954 5.81643,0.3083 6.41524,0.34217 0.23616,0.0134 0.51173,0.006 0.61242,-0.0155 0.13495,-0.0294 0.86217,0.0357 2.76777,0.24776 2.28873,0.25463 2.60709,0.29974 2.77983,0.39393 0.10728,0.0585 0.58365,0.42382 1.05858,0.81185 1.08771,0.88874 1.09287,0.89689 1.08578,1.71759 -0.002,0.32689 -0.0334,0.68693 -0.0679,0.80008 -0.0835,0.27386 -0.45368,0.60254 -0.7633,0.67769 -0.12349,0.0299 -0.88372,0.14617 -1.68941,0.25821 -0.8057,0.11205 -2.72492,0.37972 -4.26494,0.59483 -2.76863,0.38674 -2.80304,0.39033 -3.06848,0.3205 -0.31529,-0.083 -0.5873,-0.28373 -0.73183,-0.54015 -0.0807,-0.14316 -0.0991,-0.24594 -0.0834,-0.46811 0.0239,-0.33848 0.19014,-0.59198 0.48387,-0.73741 0.10381,-0.0514 1.10934,-0.37672 2.23454,-0.72294 1.83463,-0.5645 2.2426,-0.70942 2.16909,-0.77049 -0.0123,-0.01 -0.47689,-0.1565 -1.03253,-0.32518 l -1.01027,-0.3067 -4.06636,-0.22129 c -5.64138,-0.307 -5.40003,-0.29013 -5.60702,-0.39211 -0.16775,-0.0826 -0.36423,-0.0885 -3.83904,-0.11391 -3.65462,-0.0268 -3.66509,-0.0271 -5.02926,-0.16613 -1.07291,-0.10937 -1.40982,-0.15966 -1.56592,-0.23378 -0.10943,-0.0519 -0.55104,-0.30635 -0.98144,-0.56537 -1.04522,-0.62901 -1.03776,-0.61658 -1.0203,-1.70139 0.013,-0.807702 0.047,-1.016591 0.19854,-1.221127 0.0489,-0.06599 0.54918,-0.590582 1.11175,-1.165828 0.99378,-1.016125 1.04641,-1.061495 1.85003,-1.594201 l 0.82714,-0.548313 0.0844,-0.539974 0.0845,-0.539965 -0.4086,-0.47226 c -0.724,-0.836816 -0.57795,-0.74922 -1.91437,-1.148075 -0.65001,-0.193995 -1.33195,-0.368778 -1.51542,-0.388412 -0.18348,-0.01965 -1.17465,-0.131476 -2.20261,-0.248512 -2.09432,-0.238469 -2.42908,-0.255706 -3.25999,-0.167947 l -0.58278,0.06156 -0.11181,0.289897 c -0.17473,0.453178 -0.16721,0.473989 0.28611,0.791393 0.3564,0.249538 0.51339,0.318613 1.5055,0.662433 1.02948,0.356779 2.75368,1.087553 2.96019,1.254625 0.18769,0.151843 0.28561,0.374425 0.4647,1.056255 0.1703,0.648329 0.17991,0.721065 0.1235,0.933873 -0.11215,0.423122 -0.27159,0.529542 -2.05544,1.371888 l -1.6031,0.756996 -2.27312,0.457919 c -1.25021,0.251855 -2.42086,0.490205 -2.60146,0.529675 -0.38279,0.0837 -0.94879,0.13182 -4.79878,0.40843 -2.4934,0.17915 -3.10934,0.20834 -4.87459,0.23105 -1.1113,0.0143 -2.41834,0.0359 -2.90454,0.0479 -0.48619,0.012 -1.79324,0.0325 -2.90453,0.0457 -2.06422,0.0244 -3.81707,0.0667 -3.86682,0.0933 -0.055,0.0295 -5.5359,-0.29653 -5.82927,-0.34669 -0.34395,-0.0589 -0.14521,-0.0447 -5.7611,-0.40868 -3.86987,-0.25081 -6.72055,-0.42407 -11.31507,-0.687717 -1.41973,-0.08143 -1.86924,-0.126205 -3.03083,-0.301625 -1.07813,-0.162817 -1.40783,-0.229203 -1.57371,-0.316864 -0.15633,-0.08262 -0.34437,-0.283093 -0.73744,-0.786241 -0.6544,-0.837626 -0.70163,-0.919812 -0.70163,-1.220951 0,-0.328614 0.0618,-0.44334 0.68358,-1.269712 l 0.54004,-0.717674 1.42498,-0.855316 c 0.78372,-0.470425 1.60682,-0.951563 1.82909,-1.069193 3.99997,-2.11695 6.76454,-3.601176 7.57704,-4.06794 1.1338,-0.65132 5.8492,-3.376758 7.77912,-4.496214 0.69455,-0.402884 1.44041,-0.830412 1.65745,-0.950051 0.35612,-0.196328 0.43379,-0.267077 0.79627,-0.725363 l 0.40165,-0.507836 0.10428,-0.822808 c 0.0999,-0.788358 0.10083,-0.843318 0.0211,-1.31236 -0.0457,-0.269247 -0.17076,-0.761423 -0.2778,-1.093709 -0.18873,-0.585874 -0.20659,-0.61823 -0.59,-1.068826 -0.31872,-0.374556 -0.54724,-0.577008 -1.17844,-1.043955 -0.43066,-0.318614 -1.249,-0.875371 -1.81855,-1.237259 -0.99507,-0.632258 -1.05329,-0.662044 -1.49016,-0.76247 -0.79935,-0.183736 -1.66946,-0.334986 -1.9947,-0.346726 l -0.31578,-0.01134 -0.5305,0.685783 c -0.29176,0.37718 -0.66582,0.840088 -0.83125,1.028673 -1.08133,1.232852 -2.60009,2.520027 -3.8582,3.269906 -1.42215,0.847659 -3.18243,1.236815 -4.23926,0.937188 -1.48251,-0.420325 -2.12025,-1.168345 -2.02764,-2.378336 0.0567,-0.739985 0.38629,-1.567103 0.89511,-2.245833 0.49666,-0.662509 1.47401,-1.453155 2.42827,-1.964392 0.24596,-0.131768 0.43752,-0.248318 0.42569,-0.25901 -0.0119,-0.01081 -1.0518,-0.100758 -2.3111,-0.200227 l -2.2896,-0.180787 -3.63699,0.02538 c -2.00034,0.01393 -4.03479,0.03509 -4.52098,0.04709 -0.4862,0.01198 -2.00919,0.03347 -3.38442,0.04774 -1.56484,0.01631 -2.76505,0.05011 -3.20762,0.0904 -0.38896,0.03542 -1.70736,0.148323 -2.9298,0.250963 l -2.2226,0.18662 -1.41438,0.395302 c -0.84154,0.235207 -1.51157,0.448912 -1.65432,0.527674 -0.23673,0.13058 -0.23994,0.135525 -0.23894,0.368454 0.002,0.397365 0.0796,0.75801 0.3005,1.392105 l 0.21162,0.607376 1.06028,0.480242 1.06029,0.480231 2.30751,0.479853 c 3.04309,0.632831 2.6023,0.558323 6.0593,1.024278 1.67451,0.225703 3.08962,0.432182 3.14467,0.458847 0.055,0.02668 1.12858,0.20081 2.38563,0.386998 2.04343,0.302639 2.50092,0.387126 4.31862,0.797472 1.11819,0.252432 2.18656,0.480102 2.37415,0.505913 0.56678,0.07797 3.26971,1.115686 4.8821,1.87428 0.74479,0.350418 1.43107,0.690198 1.52505,0.755083 0.18356,0.126713 0.70991,0.729284 0.84669,0.969286 0.11621,0.203866 0.10859,0.612754 -0.0155,0.832896 -0.10238,0.181737 -0.48513,0.515643 -0.7141,0.623046 -0.0721,0.0338 -1.47005,0.277757 -3.1066,0.54207 -1.63652,0.264312 -4.38166,0.707489 -6.1003,0.984838 -2.42195,0.39084 -3.16394,0.526162 -3.29881,0.601598 -0.17401,0.0973 -0.23478,0.107457 -6.40688,1.067811 -0.72234,0.112392 -2.25669,0.327857 -3.40967,0.478816 -7.13881,0.934683 -8.88034,1.169166 -9.87543,1.329683 -3.705639,0.597732 -7.909752,1.26024 -8.713607,1.373151 -0.513977,0.07225 -1.230009,0.173368 -1.591181,0.224839 -0.361174,0.05152 -0.872625,0.123841 -1.136558,0.160798 -1.644484,0.230314 -2.386187,0.339229 -2.400943,0.352577 -0.0093,0.0086 0.192937,0.374957 0.449305,0.814613 0.256361,0.439678 0.61554,1.056568 0.798167,1.370883 3.574941,6.152789 4.053442,7.011339 6.089891,10.926789 0.373499,0.71812 0.727433,1.34587 1.92036,3.40605 1.059257,1.82933 1.417561,2.42447 2.917681,4.84619 0.770592,1.24401 0.782745,1.26451 1.513405,2.55124 0.57428,1.01138 0.71769,1.31531 1.32663,2.81171 0.37551,0.92276 0.85355,2.12752 1.0623,2.67725 l 0.37955,0.99951 -0.0634,0.25776 c -0.10974,0.44627 -0.60153,0.79763 -1.08673,0.77639 -0.0834,-0.003 -0.35612,-0.0206 -0.60616,-0.0378 z m 29.32666,-46.66117 c 1.17325,-0.311668 2.44975,-1.134348 3.5048,-2.258771 0.70395,-0.750224 1.50049,-1.795507 1.63563,-2.146346 l 0.0516,-0.133863 -0.26146,-0.02851 c -0.28823,-0.03143 -0.62741,0.02376 -1.67905,0.273158 -2.6897,0.637982 -4.18935,1.609601 -4.41339,2.859419 -0.0794,0.442929 -0.067,0.927901 0.0296,1.146044 0.15321,0.346564 0.54196,0.445748 1.13238,0.288903 z m -8.17937,-10.669828 c 1.2274,-0.344975 2.44243,-1.243177 3.51206,-2.596295 1.14661,-1.450477 2.07105,-3.682455 1.78452,-4.308558 -0.0989,-0.21607 -0.30817,-0.291452 -0.80817,-0.291106 -0.36325,4.54e-4 -0.48381,0.02128 -0.78297,0.136573 -1.43435,0.552815 -3.37346,2.462691 -4.46151,4.394264 -0.69012,1.225152 -0.83173,2.049538 -0.42687,2.485026 0.26118,0.280922 0.62638,0.33653 1.18294,0.180096 z m 13.81116,-0.164545 c 1.06106,-0.577493 1.97363,-1.411307 3.29217,-3.008077 1.23818,-1.499433 2.18559,-2.986208 2.18559,-3.429828 0,-0.448188 -1.09716,-0.758454 -1.97195,-0.557654 -0.87597,0.20108 -1.8022,0.762979 -2.58992,1.571175 -0.92622,0.950289 -1.79281,2.506754 -2.08232,3.739931 -0.11443,0.487424 -0.11395,1.169999 9.1e-4,1.425066 0.20576,0.456742 0.62959,0.551066 1.1655,0.259387 z m 12.90969,-4.751065 c 1.67188,-0.527328 3.07492,-1.665208 3.07492,-2.493795 0,-0.278622 -0.12915,-0.378314 -0.51919,-0.400798 -0.92663,-0.05346 -2.13675,0.737307 -2.71512,1.774111 -0.11002,0.197344 -0.5037,1.20878 -0.5037,1.294315 0,0.02268 0.0397,0.02743 0.0884,0.0108 0.0487,-0.01695 0.30724,-0.09989 0.5747,-0.184265 z m 6.94256,27.70149 c -0.60085,-0.199179 -0.66611,-0.580895 -0.27779,-1.625012 0.41824,-1.124499 2.27744,-4.859235 3.68474,-7.401845 0.26948,-0.486874 0.35169,-0.676495 0.31583,-0.72856 -0.0789,-0.114584 -0.38634,-0.183984 -1.42776,-0.322339 -1.4949,-0.198585 -1.96631,-0.312327 -2.28744,-0.551898 -0.21447,-0.159998 -0.24213,-0.309239 -0.0948,-0.511496 0.31804,-0.436525 0.97373,-0.581749 2.93788,-0.650727 0.87762,-0.03078 1.57711,-0.09007 1.92577,-0.163021 0.22676,-0.04752 0.23906,-0.05907 0.42301,-0.400043 0.66741,-1.237 3.0562,-6.651578 3.0562,-6.927382 0,-0.03801 -0.0691,-0.07711 -0.16418,-0.09277 -0.83095,-0.137188 -4.93338,-0.201143 -5.30302,-0.08262 -0.23417,0.07505 -0.58936,0.382753 -0.72187,0.625358 -0.0817,0.149717 -0.0989,0.269928 -0.0944,0.66293 0.006,0.529542 0.0813,0.855025 0.52195,2.259398 0.68591,2.186046 0.60365,2.542555 -0.57379,2.486623 -1.04868,-0.04979 -1.32534,-0.470284 -1.84425,-2.80298 -0.21582,-0.970095 -0.26047,-1.296408 -0.26272,-1.920189 -0.005,-1.307003 0.45042,-1.988002 1.72391,-2.57948 0.93626,-0.434851 0.87687,-0.427011 3.40967,-0.450392 2.09728,-0.01933 4.73328,0.027 7.29923,0.12842 3.28352,0.129759 4.09172,0.271656 4.09158,0.718386 0,0.198683 -0.27312,0.672055 -0.46195,0.800843 -0.44084,0.300663 -1.26449,0.372892 -3.49583,0.306561 -0.83264,-0.02473 -1.51959,-0.03974 -1.52655,-0.03326 -0.0258,0.02387 -2.15701,4.358755 -2.52846,5.142902 -0.52615,1.110642 -1.02914,2.277303 -1.02914,2.387028 0,0.0499 0.0397,0.109466 0.0884,0.132351 0.13209,0.06221 0.71581,0.144446 1.02705,0.144748 0.84484,8.21e-4 1.79098,0.255641 1.99519,0.53734 0.11599,0.159912 0.10883,0.401091 -0.0163,0.554339 -0.27592,0.337826 -0.86136,0.444527 -2.86456,0.522101 l -1.41198,0.05464 -0.34763,0.685782 c -0.19121,0.377179 -1.13246,2.249365 -2.09167,4.160418 -2.28543,4.55329 -2.42075,4.789987 -2.82618,4.943311 -0.21109,0.07981 -0.5917,0.07559 -0.84817,-0.0097 z m 43.15425,-0.751131 c -0.71166,-0.07775 -1.47913,-0.328539 -2.04985,-0.669896 -0.16096,-0.09623 -0.51424,-0.380862 -0.78507,-0.63241 l -0.4924,-0.457357 -0.89673,0.418705 c -1.77355,0.828122 -2.58149,0.951822 -3.54138,0.542189 -0.34197,-0.145937 -0.46238,-0.236104 -1.05203,-0.787807 l -0.66587,-0.623014 -0.16761,0.119844 c -0.0922,0.06588 -0.33426,0.242 -0.53796,0.391285 -0.72389,0.530558 -2.24877,1.188854 -3.08723,1.332771 -0.26903,0.04622 -0.78564,-0.03132 -1.07167,-0.160861 -0.0927,-0.0419 -0.4546,-0.339436 -0.80424,-0.661051 l -0.63572,-0.584751 -0.70289,0.272769 c -0.96234,0.373454 -1.4697,0.493558 -2.21831,0.525082 -0.97829,0.04125 -1.58514,-0.110816 -2.02249,-0.506647 -0.32124,-0.29075 -0.40255,-0.52477 -0.32101,-0.923959 0.0936,-0.457833 0.38627,-1.310363 0.77194,-2.247875 0.93681,-2.277304 1.05815,-2.803315 0.73993,-3.207807 -0.35467,-0.450781 -1.35327,-0.391101 -2.34084,0.13991 -0.91758,0.493385 -1.22936,0.933279 -2.5239,3.560979 -0.80898,1.642108 -1.24637,2.476344 -1.38635,2.644149 -0.20031,0.240154 -0.39985,0.32735 -0.7469,0.326401 -0.37793,-0.0011 -0.64991,-0.108171 -0.97642,-0.384589 -0.13519,-0.114445 -0.31177,-0.219094 -0.39239,-0.23255 -0.0967,-0.01609 -0.31891,0.03153 -0.65174,0.139726 -0.92994,0.302284 -1.33621,0.392148 -1.89491,0.419137 -0.97231,0.04698 -1.6938,-0.156672 -2.25397,-0.636168 -0.31643,-0.270846 -0.47377,-0.491398 -0.63162,-0.885339 -0.14515,-0.362244 -0.15778,-1.223846 -0.0243,-1.662401 0.2299,-0.755731 0.97139,-2.348225 1.80003,-3.86592 0.73585,-1.347783 1.02542,-1.760429 1.32847,-1.893212 0.42393,-0.185745 1.05169,-0.07312 1.21837,0.218619 0.17134,0.299897 0.0559,0.933171 -0.31808,1.744338 -0.10978,0.238241 -0.4084,0.824061 -0.66349,1.301818 -0.61261,1.147374 -0.97352,1.896679 -1.13777,2.362267 -0.32208,0.912878 -0.0253,2.227343 0.47824,2.118601 0.3076,-0.06642 1.45921,-0.733938 3.17967,-1.843036 l 0.92905,-0.598932 0.6164,-1.293762 c 0.33901,-0.711571 0.74762,-1.530352 0.90802,-1.819526 0.5787,-1.043295 1.13644,-1.687477 1.5997,-1.847605 0.22623,-0.07819 0.23853,-0.07786 0.43239,0.01167 0.10978,0.05065 0.35133,0.216643 0.53686,0.36881 0.48923,0.401285 0.53383,0.404245 1.31204,0.08705 0.64995,-0.264863 0.88108,-0.313332 1.63835,-0.343517 1.25566,-0.05001 2.17271,0.196965 2.40977,0.649084 0.21495,0.40999 0.19606,1.231298 -0.05,2.171748 -0.17161,0.655953 -0.27225,0.923084 -0.76651,2.034483 -0.48225,1.08442 -0.77305,1.937512 -0.78705,2.308796 l -0.01,0.25146 0.15155,-0.01468 c 0.22488,-0.02182 1.21195,-0.462023 1.71431,-0.764577 0.71226,-0.428954 1.06617,-0.8474 1.47584,-1.744932 0.37651,-0.824926 0.87029,-1.55125 1.5614,-2.296764 0.47286,-0.510082 0.84004,-0.813047 1.36061,-1.12261 1.31969,-0.784794 2.47993,-1.076504 4.84427,-1.21796 l 0.95473,-0.05713 0.5533,-1.031136 c 1.04855,-1.954112 1.76983,-3.410432 2.76367,-5.580148 1.10227,-2.406404 1.37598,-2.754253 2.17385,-2.762568 0.53327,-0.0054 0.95975,0.273967 0.95975,0.62905 0,0.596566 -1.56468,4.059733 -3.36355,7.444645 -1.97855,3.72303 -2.42263,4.608692 -2.83871,5.661385 -0.59865,1.514574 -0.65787,2.138894 -0.24187,2.549737 0.14742,0.145602 0.19904,0.165905 0.46589,0.183379 0.38053,0.02495 0.84695,-0.114985 1.43063,-0.429094 0.81156,-0.436763 1.04425,-0.738291 1.38954,-1.800562 0.48929,-1.505361 1.06735,-2.456135 1.97031,-3.240725 0.86405,-0.750774 1.7875,-1.166067 3.02465,-1.360235 0.66722,-0.104756 1.94725,-0.06815 2.41676,0.06912 0.42017,0.122805 0.72769,0.330839 0.8861,0.599461 0.34039,0.577201 -0.10907,1.543441 -1.14645,2.464894 -0.58257,0.517459 -1.71473,1.193823 -2.75571,1.64632 -0.66255,0.287996 -1.07814,0.413457 -1.51723,0.458016 -0.43142,0.04374 -0.55091,0.09591 -0.66384,0.289746 -0.21641,0.371391 0.004,1.01716 0.49939,1.465543 0.62788,0.567882 1.49369,0.705502 2.60483,0.414072 2.00703,-0.5264 4.14853,-2.361077 5.1429,-4.406014 0.47854,-0.984146 0.52043,-1.245553 0.26862,-1.67644 -0.14807,-0.253373 -0.15526,-0.289303 -0.13554,-0.679001 0.0167,-0.330601 0.0469,-0.457476 0.15386,-0.645531 0.25355,-0.44605 0.65556,-0.63795 1.26145,-0.602139 0.57131,0.0338 0.86712,0.208446 1.1715,0.691777 0.23105,0.366899 0.2453,0.36934 2.17553,0.374101 1.75478,0.0043 1.99763,0.02668 2.3694,0.217605 0.34662,0.178043 0.4096,0.299659 0.4037,0.779533 -0.008,0.664281 -0.16128,1.021222 -1.28801,3.002171 -0.54654,0.960883 -0.82177,1.791187 -0.82596,2.491678 -0.002,0.492046 0.0677,0.674118 0.30029,0.774016 0.59736,0.256547 1.48197,-0.119845 3.44272,-1.464873 0.8872,-0.608586 1.08586,-0.694531 1.3631,-0.589698 0.24377,0.09223 0.8268,0.61958 0.8268,0.747902 0,0.342869 -2.26918,1.723656 -3.80092,2.312856 -0.99549,0.382916 -1.30475,0.454248 -1.9829,0.457293 -0.57273,0.0022 -0.62225,-0.0043 -0.89761,-0.130849 -0.3574,-0.163821 -0.81115,-0.52937 -1.12268,-0.904488 -0.41125,-0.495134 -0.47668,-0.763993 -0.38192,-1.569316 0.12673,-1.077262 0.38847,-1.854161 1.00834,-2.993174 0.61936,-1.138086 0.72111,-1.448167 0.53153,-1.619753 -0.10251,-0.09277 -0.51251,-0.09407 -1.08047,-0.0032 -1.14565,0.182482 -1.20627,0.230725 -1.89128,1.505253 -0.59584,1.108623 -1.08544,1.844269 -1.80368,2.710103 -0.71834,0.865943 -1.2159,1.303796 -1.82762,1.608272 -0.96971,0.482661 -2.91849,1.165981 -3.9002,1.367557 -0.56847,0.116735 -1.01522,0.147882 -1.44601,0.100866 z M 186.40121,88.38931 c 0.32696,-0.135051 0.99403,-0.616297 1.4175,-1.022635 1.03855,-0.996555 2.77211,-3.146682 3.29852,-4.091117 0.1848,-0.331552 0.20048,-0.512836 0.0547,-0.63228 -0.15052,-0.12329 -0.91652,-0.148517 -1.35696,-0.04471 -1.51437,0.356941 -3.05374,1.906355 -3.74243,3.766812 -0.35408,0.956563 -0.45361,1.752966 -0.24854,1.988919 0.12493,0.143743 0.28977,0.153734 0.57725,0.03499 z m 12.57062,-3.598627 c 0.64456,-0.150138 1.67596,-0.671948 2.23717,-1.131822 0.56717,-0.464766 0.73081,-0.927457 0.40522,-1.145817 -0.12238,-0.08208 -0.21146,-0.09558 -0.61425,-0.09288 -0.42374,0.0032 -0.50397,0.01782 -0.79814,0.148842 -0.75108,0.334661 -1.60122,1.267336 -1.7579,1.92857 -0.0924,0.389881 -0.0319,0.4235 0.5279,0.293116 z M 170.6035,78.719395 c -0.29552,-0.09871 -0.43693,-0.20027 -0.59716,-0.428943 -0.45929,-0.655467 0.16975,-1.291096 1.27768,-1.291096 0.59358,0 0.83424,0.204882 0.78171,0.665501 -0.0823,0.722339 -0.83394,1.264366 -1.46223,1.054538 z M 95.981672,71.369356 c -0.87278,-0.08715 -2.045244,-0.435736 -2.778253,-0.826103 -1.541557,-0.820939 -2.201979,-1.848987 -2.134466,-3.322565 0.04102,-0.895037 0.392046,-1.623738 0.916111,-1.901711 0.62097,-0.32937 1.054944,0.03262 1.394602,1.163226 0.199525,0.66414 0.347949,0.986717 0.631901,1.373293 0.469848,0.639667 1.273542,1.121961 2.222674,1.333808 0.598845,0.133668 1.908145,0.143388 2.677227,0.01987 2.319292,-0.37245 3.512452,-1.425476 4.116982,-3.633467 0.23889,-0.87252 0.31862,-1.457562 0.2905,-2.131497 -0.04,-0.95868 -0.28382,-1.429213 -1.14935,-2.218046 -0.55149,-0.502619 -1.26253,-1.011674 -2.424657,-1.735904 -1.68947,-1.052875 -2.39546,-1.730676 -2.691809,-2.584339 -0.296111,-0.852973 0.01893,-2.623121 0.703207,-3.951271 0.782643,-1.519066 2.493539,-2.989436 4.234609,-3.639277 0.99024,-0.36961 1.94869,-0.50547 3.28524,-0.465695 2.73141,0.08132 4.15403,0.802095 4.42262,2.240876 0.0791,0.423544 0.0371,1.146347 -0.1027,1.769253 -0.48283,2.151185 -1.81118,3.809547 -3.04777,3.804924 -0.34929,-0.0011 -0.53679,-0.05336 -0.68922,-0.191306 -0.21956,-0.198715 -0.12615,-0.496301 0.54584,-1.739144 0.6186,-1.144099 0.73367,-1.458026 0.73735,-2.01163 0.003,-0.398736 -0.009,-0.454431 -0.14728,-0.679712 -0.39562,-0.646505 -1.49007,-1.145872 -2.51656,-1.148237 -0.75371,-0.0022 -1.61894,0.250208 -2.3388,0.681073 -1.34618,0.805713 -2.155138,2.053621 -2.269804,3.501398 -0.104038,1.313677 0.335804,1.828499 3.006924,3.519455 1.81914,1.151617 2.33502,1.638532 2.82839,2.669668 0.60485,1.264075 0.64623,1.763907 0.3013,3.638738 -0.20864,1.134057 -0.3734,1.712942 -0.62506,2.196187 -0.25461,0.488893 -0.85814,1.228889 -1.41859,1.739316 -1.94338,1.769965 -5.211029,2.805312 -7.98116,2.528807 z"
       id="path302" /></g></svg>
